<svg width="320" height="320" viewBox="0 0 320 320" fill="none" xmlns="http://www.w3.org/2000/svg">
<path d="M91.004 159.572C90.9397 155.646 92.635 152.591 96.0862 150.404C94.1398 147.574 91.2693 145.983 87.4735 145.627C86.1233 145.501 84.3971 145.82 82.2973 146.593C80.0385 147.43 78.7668 147.846 78.4848 147.846C77.8886 147.846 76.7437 147.495 75.0471 146.785C73.3543 146.078 71.9101 145.724 70.7176 145.724C68.7099 145.757 66.842 146.311 65.117 147.388C63.3914 148.466 62.0115 149.939 60.9767 151.802C59.6575 154.119 59 156.886 59 160.102C59 162.996 59.4849 165.89 60.4572 168.787C61.367 171.553 62.5298 173.981 63.94 176.07C65.1937 177.968 66.2959 179.351 67.2342 180.221C68.585 181.571 69.9636 182.216 71.3775 182.15C72.2867 182.117 73.478 181.78 74.9531 181.134C76.3324 180.527 77.7141 180.22 79.0953 180.22C80.3811 180.22 81.7134 180.525 83.0958 181.134C84.6321 181.78 85.8883 182.101 86.8606 182.101C88.3042 182.038 89.6525 181.41 90.9093 180.221C91.3466 179.833 91.826 179.303 92.343 178.628C92.94 177.841 93.5132 177.037 94.0619 176.216C94.5191 175.508 94.9509 174.783 95.3564 174.045C95.7914 173.249 96.1765 172.427 96.5093 171.584C96.6645 171.23 96.8056 170.869 96.9324 170.499C97.0573 170.129 97.1829 169.752 97.3084 169.366C96.1475 168.852 95.096 168.125 94.1553 167.192C92.087 165.137 91.0355 162.595 91.004 159.572ZM125.131 168.172H124.903L115.345 146.331H107.84V181.571H114.381V158.748H114.685L122.672 176.871H127.26L135.222 158.748H135.527V181.571H142.143V146.331H134.689L125.131 168.172ZM85.0725 141.72C86.7363 139.629 87.5682 137.378 87.5682 134.965V134.483C87.5682 134.321 87.5521 134.161 87.5212 134C86.3596 134.064 85.1288 134.435 83.8256 135.109C82.5243 135.786 81.4499 136.639 80.6013 137.667C78.9079 139.695 78.0599 141.864 78.0599 144.181V144.638C78.0599 144.784 78.076 144.936 78.1069 145.098C80.712 145.355 83.0339 144.228 85.0725 141.72ZM218.596 146.331H225.948V181.572H218.596V146.331ZM248.153 151.932C252.514 151.932 254.82 155.289 254.82 158.904H261.87V158.155C261.87 151.339 256.672 145.66 248.102 145.66C238.923 145.66 233.448 151.701 233.448 162.003V165.979C233.448 176.278 238.873 182.244 248.076 182.244C256.874 182.244 261.87 176.485 261.87 170.083V169.309H254.82C254.82 172.95 252.565 175.971 248.205 175.971C243.742 175.971 240.901 172.795 240.901 166.003V162.03C240.901 155.262 243.768 151.932 248.153 151.932ZM170.263 168.584C170.263 173.31 167.5 175.917 163.443 175.917C159.361 175.917 156.598 173.335 156.598 168.584V146.331H149.296V169.617C149.296 177.132 154.619 182.243 163.442 182.243C172.24 182.243 177.589 177.132 177.589 169.617V146.331H170.263V168.584ZM201.914 161.047L196.667 159.86C193.575 159.213 191.952 157.845 191.952 155.805C191.952 153.095 194.157 151.391 197.708 151.391C201.713 151.391 203.716 153.688 203.893 156.167H210.739C210.663 149.944 205.466 145.608 197.732 145.608C190.406 145.608 184.625 149.455 184.625 156.374C184.625 162.363 188.682 165.15 193.55 166.211L198.747 167.423C202.245 168.224 204.02 169.387 204.02 171.786C204.02 174.525 201.839 176.384 197.758 176.384C193.372 176.384 191.064 174.059 190.862 171.451H183.813C183.917 176.434 187.212 182.243 197.404 182.243C205.973 182.243 211.273 177.984 211.273 171.062C211.271 164.659 206.986 162.155 201.914 161.047Z" fill="white"/>
</svg>
