<svg width="320" height="320" viewBox="0 0 320 320" fill="none" xmlns="http://www.w3.org/2000/svg">
<g clip-path="url(#clip0_665_355)">
<path d="M183.072 158.624C176.897 158.624 173.742 163.338 173.742 170.439C173.742 177.152 177.153 182.191 183.072 182.191C189.765 182.191 192.275 176.25 192.275 170.439C192.27 164.372 189.116 158.624 183.07 158.624M166.664 141H173.999V158.043H174.129C176.124 154.815 180.305 152.813 184.038 152.813C194.526 152.813 199.61 160.821 199.61 170.571C199.61 179.542 195.107 188 185.26 188C180.756 188 175.93 186.905 173.741 182.513H173.614V187.099H166.663V141L166.664 141Z" fill="white"/>
<path d="M226.664 164.889C226.085 160.821 223.125 158.624 219.071 158.624C215.273 158.624 209.933 160.627 209.933 170.763C209.933 176.316 212.377 182.193 218.749 182.193C222.995 182.193 225.954 179.348 226.664 174.57H233.999C232.647 183.222 227.308 188 218.749 188C208.324 188 202.598 180.577 202.598 170.763C202.598 160.692 208.067 152.815 219.007 152.815C226.728 152.815 233.293 156.689 233.999 164.889H226.676H226.664Z" fill="white"/>
<path d="M141.019 186.999H86L111.693 140.999H166.712L141.019 186.999Z" fill="white"/>
</g>
<defs>
<clipPath id="clip0_665_355">
<rect width="148" height="47" fill="white" transform="translate(86 141)"/>
</clipPath>
</defs>
</svg>
