<svg width="320" height="320" viewBox="0 0 320 320" fill="none" xmlns="http://www.w3.org/2000/svg">
<g clip-path="url(#clip0_665_352)">
<path d="M159.498 111.16C132.795 111.16 111.146 132.808 111.146 159.511C111.146 186.216 132.795 207.862 159.498 207.862C186.204 207.862 207.85 186.216 207.85 159.511C207.85 132.81 186.204 111.162 159.498 111.162L159.498 111.16ZM181.672 180.896C180.806 182.317 178.947 182.767 177.526 181.895C166.174 174.961 151.882 173.39 135.052 177.236C133.43 177.605 131.813 176.589 131.444 174.967C131.072 173.344 132.085 171.727 133.711 171.358C152.129 167.148 167.928 168.962 180.673 176.751C182.093 177.622 182.544 179.476 181.672 180.896ZM187.59 167.729C186.499 169.505 184.178 170.065 182.405 168.973C169.408 160.983 149.597 158.669 134.224 163.336C132.23 163.938 130.124 162.814 129.519 160.824C128.919 158.83 130.043 156.729 132.033 156.123C149.593 150.794 171.423 153.375 186.349 162.547C188.121 163.638 188.681 165.959 187.59 167.729ZM188.098 154.02C172.515 144.764 146.804 143.913 131.925 148.428C129.536 149.153 127.009 147.804 126.285 145.415C125.561 143.025 126.909 140.5 129.3 139.773C146.379 134.589 174.772 135.59 192.714 146.241C194.867 147.517 195.572 150.292 194.296 152.438C193.025 154.587 190.242 155.296 188.1 154.02H188.098Z" fill="white"/>
</g>
<defs>
<clipPath id="clip0_665_352">
<rect width="97" height="97" fill="white" transform="translate(111 111)"/>
</clipPath>
</defs>
</svg>
