<svg width="320" height="320" viewBox="0 0 320 320" fill="none" xmlns="http://www.w3.org/2000/svg">
<path fill-rule="evenodd" clip-rule="evenodd" d="M159 212.667C185.325 212.667 206.666 191.326 206.666 165C206.666 138.675 185.325 117.333 159 117.333C132.674 117.333 111.333 138.675 111.333 165C111.333 191.326 132.674 212.667 159 212.667ZM159 142.272C171.534 142.272 181.728 152.466 181.728 165C181.728 177.534 171.534 187.728 159 187.728C146.466 187.728 136.271 177.534 136.271 165C136.271 152.466 146.466 142.272 159 142.272ZM159 140.083C145.236 140.083 134.083 151.236 134.083 165C134.083 178.764 145.236 189.917 159 189.917C172.763 189.917 183.916 178.764 183.916 165C183.916 151.236 172.763 140.083 159 140.083ZM171.458 164.458L150.333 177.458V152.542L171.458 164.458Z" fill="white"/>
</svg>
