<svg width="545" height="295" viewBox="0 0 545 295" fill="none" xmlns="http://www.w3.org/2000/svg">
<g clip-path="url(#clip0_405_54)">
<path d="M181.556 248.124L194.604 256.989L164.694 294.945L125.11 262.031L131.855 255.715C136.333 251.227 138.6 245.852 138.6 239.701V121.956L105.761 106.774V248.124L118.808 256.989L88.8986 294.945L49.7568 262.031L56.0593 255.715C60.5374 251.227 62.8041 245.852 62.8041 239.701V40.1165C59.7081 37.8447 57.3862 35.6283 55.8382 33.3565C54.2902 31.0847 53.2398 29.1454 52.6869 27.4277C51.8577 25.4884 51.5812 23.4936 51.8577 21.4989L91.4418 0C91.4418 5.65177 92.7686 10.1399 95.4223 13.5199C98.076 16.8999 100.951 19.7258 104.047 21.9421C107.696 24.491 111.897 26.4303 116.652 27.871C116.375 29.5332 115.657 30.9739 114.551 32.0821C113.722 33.4673 112.561 34.7417 111.179 35.9053C109.796 37.0135 107.972 38.1771 105.705 39.2853V87.3807L122.125 67.1009L194.548 100.457L187.804 106.774C183.602 110.985 181.501 116.194 181.501 122.4V248.179L181.556 248.124Z" fill="white"/>
<path d="M332.706 248.124L345.753 256.989L315.844 294.945L276.26 262.031L283.005 255.715C287.483 251.227 289.749 245.852 289.749 239.701V121.956L256.91 106.774V248.124L269.957 256.989L240.048 294.945L200.906 262.031L207.209 255.715C211.687 251.227 213.954 245.852 213.954 239.701V106.774C210.858 104.502 208.591 102.23 207.209 99.7924C205.827 97.4098 204.831 95.3597 204.279 93.6974C203.449 91.7581 203.173 89.7633 203.449 87.7686L242.591 66.2697C242.591 71.9215 243.973 76.4651 246.793 80.0113C249.612 83.5575 252.542 86.4388 255.638 88.6551L273.33 67.1563L345.753 100.513L339.008 106.829C334.807 111.041 332.706 116.249 332.706 122.455V248.234V248.124Z" fill="white"/>
<path d="M483.855 248.124L496.903 256.989L466.993 294.945L427.409 262.031L434.154 255.715C438.632 251.227 440.899 245.852 440.899 239.701V121.956L408.059 106.774V248.124L421.107 256.989L391.197 294.945L352.056 262.031L358.358 255.715C362.836 251.227 365.103 245.852 365.103 239.701V40.1165C362.007 37.8447 359.685 35.6283 358.137 33.3565C356.589 31.0847 355.539 29.1454 354.986 27.4277C354.156 25.4884 353.88 23.4936 354.157 21.4989L393.741 0C393.741 5.65177 395.067 10.1399 397.721 13.5199C400.375 16.8999 403.25 19.7258 406.346 21.9421C409.994 24.491 414.196 26.4303 419.006 27.871C418.729 29.5332 418.011 30.9739 416.905 32.0821C416.076 33.4673 414.915 34.7417 413.533 35.9053C412.151 37.0135 410.326 38.1771 408.059 39.2853V87.3807L424.479 67.1009L496.903 100.457L490.158 106.774C485.956 110.985 483.855 116.194 483.855 122.4V248.179V248.124Z" fill="white"/>
<path d="M545 164.899H0V199.197H545V164.899Z" fill="#DA403F"/>
</g>
<defs>
<clipPath id="clip0_405_54">
<rect width="545" height="295" fill="white"/>
</clipPath>
</defs>
</svg>
